# xmcd
#
# Track frame offsets:
# 150
# 12905
# 25975
# 39692
# 53455
# 68362
# 88505
# 105267
# 116300
# 130652
# 141162
# 156607
# 172062
# 187312
# 200095
# 217422
# 230525
# 246542
# 264315
# 278642
# 292162
# 312782
# 324132
# 340370
#
# Disc length: 4722 seconds
#
#
# Revision: 1
# Processed by: cddbd v1.5.2PL0 Copyright (c) Steve Scherf et al.
# Submitted via: FreeRIP 2.951 
#
DISCID=68127018
DTITLE=Steppin' Country 2
DYEAR=1998
DGENRE=Country
TTITLE0=Dixie Chicks - Let 'er Rip
TTITLE1=Deryl Dodd - 13 MWZ
TTITLE2=Ricochet - Daddy's Money
TTITLE3=Wade Hayes - Tore Up From The Floor
TTITLE4=Asleep At The Wheel - Boogie Back To Texas
TTITLE5=James Bonamy - Little Blue Dot
TTITLE6=Ricky Scaggs - Cajun Moon
TTITLE7=Roger Miller - King Of The Road
TTITLE8=Rick Trevino - Un Momento Alla
TTITLE9=Stacy Dean Campbell - Eight Feet High
TTITLE10=Dixie Chicks - Tonight The Heartache's On Me
TTITLE11=Charly Daniels Band - Boogie Woogie Fiddle Country Blues
TTITLE12=James Bonamy - The Swing
TTITLE13=Patty Loveless - I Try To Think About Elvis
TTITLE14=Ricky Scaggs - Country Boy
TTITLE15=Collin Raye - My Kind Of Girl
TTITLE16=The Kinleys - Just Between You And Me
TTITLE17=Joe Diffie - Bigger Than The Beatles
TTITLE18=Rick Trevino - See Rock City
TTITLE19=Ricochet - You Still Got It
TTITLE20=Patty Loveless - To Have You Back Again
TTITLE21=Wade Hayes - When The Wrong Man Loves You Right
TTITLE22=Love Potion No.9 - Hansel Martinez
TTITLE23=Steve Earle - Devil's Right Hand
EXTD=
EXTT0=
EXTT1=
EXTT2=
EXTT3=
EXTT4=
EXTT5=
EXTT6=
EXTT7=
EXTT8=
EXTT9=
EXTT10=
EXTT11=
EXTT12=
EXTT13=
EXTT14=
EXTT15=
EXTT16=
EXTT17=
EXTT18=
EXTT19=
EXTT20=
EXTT21=
EXTT22=
EXTT23=
PLAYORDER=
